<svg width="248" height="79" viewBox="0 0 248 79" fill="none" xmlns="http://www.w3.org/2000/svg">
<path d="M86.2 55.96C84.616 55.96 83.152 55.648 81.808 55.024C80.488 54.4 79.396 53.5 78.532 52.324L81.124 49.12C82.492 51.04 84.136 52 86.056 52C88.72 52 90.052 50.452 90.052 47.356V30.724H81.052V26.8H94.696V47.104C94.696 50.056 93.976 52.264 92.536 53.728C91.096 55.216 88.984 55.96 86.2 55.96ZM113.035 52.36C110.467 52.36 108.151 51.808 106.087 50.704C104.023 49.576 102.403 48.028 101.227 46.06C100.051 44.068 99.4629 41.848 99.4629 39.4C99.4629 36.952 100.051 34.744 101.227 32.776C102.403 30.784 104.023 29.236 106.087 28.132C108.151 27.004 110.467 26.44 113.035 26.44C115.603 26.44 117.919 27.004 119.983 28.132C122.047 29.236 123.667 30.772 124.843 32.74C126.019 34.708 126.607 36.928 126.607 39.4C126.607 41.872 126.019 44.092 124.843 46.06C123.667 48.028 122.047 49.576 119.983 50.704C117.919 51.808 115.603 52.36 113.035 52.36ZM113.035 48.256C114.715 48.256 116.227 47.884 117.571 47.14C118.915 46.372 119.971 45.316 120.739 43.972C121.507 42.604 121.891 41.08 121.891 39.4C121.891 37.72 121.507 36.208 120.739 34.864C119.971 33.496 118.915 32.44 117.571 31.696C116.227 30.928 114.715 30.544 113.035 30.544C111.355 30.544 109.843 30.928 108.499 31.696C107.155 32.44 106.099 33.496 105.331 34.864C104.563 36.208 104.179 37.72 104.179 39.4C104.179 41.08 104.563 42.604 105.331 43.972C106.099 45.316 107.155 46.372 108.499 47.14C109.843 47.884 111.355 48.256 113.035 48.256ZM153.348 26.8V52H148.848V48.796C147.144 51.172 144.504 52.36 140.928 52.36C137.952 52.36 135.612 51.436 133.908 49.588C132.204 47.716 131.352 45.076 131.352 41.668V26.8H136.032V41.488C136.032 43.72 136.56 45.412 137.616 46.564C138.696 47.692 140.172 48.256 142.044 48.256C144.06 48.256 145.668 47.656 146.868 46.456C148.068 45.232 148.668 43.42 148.668 41.02V26.8H153.348ZM176.602 52L171.454 44.62C171.238 44.644 170.914 44.656 170.482 44.656H164.794V52H160.114V26.8H170.482C172.666 26.8 174.562 27.16 176.17 27.88C177.802 28.6 179.05 29.632 179.914 30.976C180.778 32.32 181.21 33.916 181.21 35.764C181.21 37.66 180.742 39.292 179.806 40.66C178.894 42.028 177.574 43.048 175.846 43.72L181.642 52H176.602ZM176.494 35.764C176.494 34.156 175.966 32.92 174.91 32.056C173.854 31.192 172.306 30.76 170.266 30.76H164.794V40.804H170.266C172.306 40.804 173.854 40.372 174.91 39.508C175.966 38.62 176.494 37.372 176.494 35.764ZM198.975 26.44C201.999 26.44 204.351 27.364 206.031 29.212C207.735 31.06 208.587 33.7 208.587 37.132V52H203.907V37.312C203.907 35.08 203.367 33.4 202.287 32.272C201.231 31.12 199.755 30.544 197.859 30.544C195.795 30.544 194.151 31.156 192.927 32.38C191.727 33.58 191.127 35.38 191.127 37.78V52H186.447V26.8H190.983V29.968C192.735 27.616 195.399 26.44 198.975 26.44ZM236.878 26.8V44.296C236.878 48.016 235.858 50.872 233.818 52.864C231.802 54.856 229.006 55.852 225.43 55.852C223.318 55.852 221.398 55.54 219.67 54.916C217.942 54.316 216.478 53.452 215.278 52.324L217.186 48.724C219.418 50.74 222.142 51.748 225.358 51.748C229.918 51.748 232.198 49.336 232.198 44.512V42.604C230.494 44.764 228.022 45.844 224.782 45.844C221.59 45.844 219.118 44.932 217.366 43.108C215.614 41.284 214.738 38.668 214.738 35.26V26.8H219.418V35.044C219.418 37.252 219.946 38.932 221.002 40.084C222.082 41.212 223.582 41.776 225.502 41.776C227.542 41.776 229.162 41.176 230.362 39.976C231.586 38.752 232.198 36.952 232.198 34.576V26.8H236.878Z" fill="black"/>
<path d="M32.5053 49.6647H19.3386V28.1223L25.922 23.3346L32.5053 18.5436L39.0886 13.7559V28.6325L32.5053 33.5388V49.6647Z" fill="black" stroke="black" stroke-miterlimit="10"/>
<path d="M39.2532 57.8346L32.6698 65.0186L26.0865 57.8346L19.5032 50.6522H32.6698L39.2532 57.8346Z" fill="black" stroke="black" stroke-miterlimit="10"/>
<path d="M59.6615 13.4876V49.3964H46.4949V27.8508L53.0782 20.67V20.6684L59.6615 13.4876Z" fill="black" stroke="black" stroke-miterlimit="10"/>
<path d="M46.4948 51.1459H59.6615L53.0781 58.3283L46.4948 65.5124H33.3281L39.9115 58.3283L46.4948 51.1459Z" fill="black" stroke="black" stroke-miterlimit="10"/>
</svg>
